#!OML:ASF F:\VICON\USERDATA\INSTALL\rory3\rory3.ASF
:FULLY-SPECIFIED
:DEGREES
247
root 0.330673 17.7952 18.6312 -1.53006 6.59391 2.05293
lowerback 9.51032 -1.39262 -4.74571
upperback 1.08505 -2.29674 1.05096
thorax -3.97082 -1.05685 4.05859
lowerneck -15.9206 -3.14611 -1.98488
upperneck 19.8894 -4.14065 1.26402
head 8.92703 -1.95544 0.249262
rclavicle 2.7482e-014 3.97569e-016
rhumerus -33.3498 -23.3268 -76.3228
rradius 25.3358
rwrist 7.32482
rhand -17.4391 23.8093
rfingers 7.12502
rthumb 8.81161 -5.9867
lclavicle 2.7482e-014 3.97569e-016
lhumerus -19.9113 -5.53013 81.3854
lradius 30.5743
lwrist 10.5696
lhand -29.2882 22.3243
lfingers 7.12502
lthumb -2.63009 52.2878
rfemur -27.9767 7.26312 14.3673
rtibia 15.9444
rfoot -12.4098 -19.3666
rtoes 3.94319
lfemur 8.03804 -2.2967 -26.9291
ltibia 20.3338
lfoot -17.7663 -1.83921
ltoes -1.82557
248
root 0.317358 17.7773 18.8 -1.25544 6.65818 2.07396
lowerback 9.43784 -1.41278 -4.85983
upperback 0.928321 -2.33332 1.09832
thorax -4.08408 -1.06633 4.17819
lowerneck -15.8749 -3.18952 -2.07943
upperneck 19.9244 -4.17569 1.25267
head 8.93327 -1.98046 0.257053
rclavicle 2.65874e-015 -1.19271e-015
rhumerus -33.4136 -23.6923 -76.0617
rradius 24.8393
rwrist 7.76831
rhand -17.3957 23.3721
rfingers 7.12502
rthumb 8.85352 -6.42212
lclavicle 2.65874e-015 -1.19271e-015
lhumerus -19.6964 -5.51044 81.3316
lradius 30.6928
lwrist 10.3323
lhand -29.4551 21.4192
lfingers 7.12502
lthumb -2.79119 51.3807
rfemur -28.1822 9.74933 13.1868
rtibia 14.253
rfoot -14.1668 -21.0611
rtoes 3.17697
lfemur 8.59898 -2.33325 -26.7767
ltibia 19.8395
lfoot -17.6421 -2.15922
ltoes -1.76892
249
root 0.308569 17.7501 18.9836 -1.28482 6.76849 2.20453
lowerback 9.58133 -1.4711 -5.0313
upperback 0.805496 -2.43914 1.0946
thorax -4.27476 -1.10717 4.29312
lowerneck -15.7348 -3.14488 -2.08439
upperneck 20.1269 -4.10932 1.20661
head 8.97518 -1.95496 0.251269
rclavicle -5.64051e-014 1.74931e-014
rhumerus -33.6815 -23.544 -75.93
rradius 24.6012
rwrist 7.95576
rhand -17.6379 22.739
rfingers 7.12502
rthumb 8.61982 -7.06501
lclavicle -5.64051e-014 1.74931e-014
lhumerus -19.7033 -5.4763 81.2523
lradius 30.8706
lwrist 10.4241
lhand -29.8569 20.2807
lfingers 7.12502
lthumb -3.17924 50.2367
rfemur -28.0991 10.7881 12.5558
rtibia 13.2514
rfoot -14.8278 -21.8341
rtoes 2.56441
lfemur 9.55824 -2.31166 -26.7739
ltibia 19.477
lfoot -17.7424 -2.20858
ltoes -5.17308
250
root 0.302974 17.7145 19.1738 -1.34174 6.87771 2.48215
lowerback 9.5866 -1.47392 -5.19269
upperback 0.7941 -2.46755 0.945263
thorax -4.28652 -1.11875 4.23142
lowerneck -15.6315 -3.17494 -2.18437
upperneck 20.2711 -4.18108 1.42519
head 9.01467 -1.97247 0.333693
rclavicle 2.93207e-015 3.97569e-015
rhumerus -34.2043 -23.6287 -75.8395
rradius 24.8751
rwrist 7.95537
rhand -17.5891 23.01
rfingers 7.12502
rthumb 8.66691 -6.79212
lclavicle 2.93207e-015 3.97569e-015
lhumerus -19.6274 -5.80116 81.1384
lradius 31.0439
lwrist 10.4808
lhand -30.0564 20.1107
lfingers 7.12502
lthumb -3.37191 50.0638
rfemur -28.0002 10.1433 12.5613
rtibia 12.924
rfoot -14.7446 -21.3009
rtoes 1.05619
lfemur 10.4787 -2.31875 -26.9397
ltibia 19.363
lfoot -17.9577 -2.17599
ltoes -9.8973
251
root 0.293102 17.6802 19.3513 -1.32876 6.7694 2.47977
lowerback 9.59861 -1.43297 -5.14468
upperback 0.735541 -2.41219 0.901594
thorax -4.3646 -1.0888 4.15379
lowerneck -15.4935 -3.15002 -2.09898
upperneck 20.3348 -4.16885 1.40922
head 9.00867 -1.96268 0.317495
rclavicle 1.92821e-014 1.23246e-014
rhumerus -34.6064 -23.7876 -75.7218
rradius 24.9876
rwrist 8.09612
rhand -17.686 23.5372
rfingers 7.12502
rthumb 8.57339 -6.26871
lclavicle 1.92821e-014 1.23246e-014
lhumerus -19.5575 -6.04685 81.0242
lradius 31.1914
lwrist 10.4342
lhand -30.2689 18.9291
lfingers 7.12502
lthumb -3.57711 48.8789
rfemur -28.2787 8.63092 13.4
rtibia 13.3376
rfoot -13.9942 -19.8532
rtoes 0.112577
lfemur 11.0779 -2.42189 -26.8393
ltibia 19.4296
lfoot -17.966 -2.22811
ltoes -11.9592
252
root 0.278964 17.6578 19.5179 -1.30452 6.37302 2.37752
lowerback 9.84107 -1.3328 -5.18117
upperback 0.64367 -2.2953 0.966988
thorax -4.60524 -1.01983 4.24081
lowerneck -15.4182 -3.0883 -1.9573
upperneck 20.2326 -4.0902 1.28619
head 8.95213 -1.92954 0.263986
rclavicle -2.54693e-014 3.97569e-015
rhumerus -34.5223 -23.84 -75.7047
rradius 24.6535
rwrist 8.09531
rhand -17.8186 23.5374
rfingers 7.12502
rthumb 8.44536 -6.2737
lclavicle -2.54693e-014 3.97569e-015
lhumerus -19.3469 -5.99728 80.9306
lradius 31.1732
lwrist 10.3379
lhand -30.4939 18.1949
lfingers 7.12502
lthumb -3.79444 48.1409
rfemur -28.7441 6.83291 14.6512
rtibia 14.1288
rfoot -12.8055 -17.8789
rtoes 1.0925
lfemur 11.3562 -2.40954 -26.6675
ltibia 19.8079
lfoot -17.7911 -2.48311
ltoes -10.9817
253
root 0.273772 17.6569 19.6962 -1.35409 6.13479 2.51658
lowerback 9.91554 -1.2901 -5.31979
upperback 0.74655 -2.25599 0.953337
thorax -4.53841 -1.00207 4.30015
lowerneck -15.5929 -3.01414 -1.96073
upperneck 20.1025 -3.9748 1.26252
head 8.93691 -1.87768 0.268957
rclavicle -2.43511e-014 1.47101e-014
rhumerus -34.2202 -24.0131 -75.709
rradius 24.3411
rwrist 8.2606
rhand -17.8388 23.3117
rfingers 7.12502
rthumb 8.42588 -6.50027
lclavicle -2.43511e-014 1.47101e-014
lhumerus -19.0126 -5.53459 80.8332
lradius 31.2181
lwrist 10.004
lhand -30.4725 17.3486
lfingers 7.12502
lthumb -3.77375 47.2949
rfemur -28.9669 4.63446 15.7419
rtibia 15.039
rfoot -11.4321 -15.8429
rtoes 1.6387
lfemur 11.5693 -2.4015 -26.7819
ltibia 20.5418
lfoot -17.7058 -2.95367
ltoes -9.96672
